<svg width="42" height="52" viewBox="0 0 42 52" fill="none" xmlns="http://www.w3.org/2000/svg">
<g clip-path="url(#clip0_626_21)">
<path d="M26.4201 20.7994H21.0015V52.0001H26.0807C34.8719 52.0001 42 44.9396 42 36.2316C42 27.7102 35.0262 20.7994 26.4201 20.7994V20.7994Z" fill="#F18021"/>
<path d="M10.5008 52.003C16.3002 52.003 21.0015 47.3462 21.0015 41.6018C21.0015 35.8573 16.3002 31.2006 10.5008 31.2006C4.70135 31.2006 0 35.8573 0 41.6018C0 47.3462 4.70135 52.003 10.5008 52.003Z" fill="#A5DDEE"/>
<path d="M20.9985 0V20.7994C26.7966 20.7994 31.4992 16.1444 31.4992 10.3982C31.4992 4.65503 26.7997 0 20.9985 0Z" fill="#073F5C"/>
<path d="M20.9985 20.7994H0V31.2007H20.9985V20.7994Z" fill="#3B9EBD"/>
<path d="M20.9985 0L0 20.7994V0H20.9985Z" fill="#F6AD1C"/>
</g>
<defs>
<clipPath id="clip0_626_21">
<rect width="42" height="52" fill="white"/>
</clipPath>
</defs>
</svg>
